<svg width="41" height="41" viewBox="0 0 41 41" fill="none" xmlns="http://www.w3.org/2000/svg">
<path d="M18.2222 0H22.7778C24.0358 0 25.0556 1.01981 25.0556 2.27778V3.57335C25.0556 4.54779 25.7095 5.39435 26.6095 5.76797C27.5099 6.14175 28.5581 5.9993 29.2473 5.31002L30.1637 4.39363C31.0532 3.50409 32.4955 3.50409 33.3849 4.39363L36.6062 7.61488C37.4959 8.50443 37.4956 9.94662 36.6062 10.8362L35.69 11.7524C35.0006 12.4417 34.8582 13.4901 35.232 14.3904C35.6055 15.2904 36.4522 15.9444 37.4268 15.9444H38.7222C39.9802 15.9444 41 16.9642 41 18.2222V22.7778C41 24.0358 39.9802 25.0556 38.7222 25.0556H37.4266C36.4522 25.0556 35.6058 25.7095 35.232 26.6095C34.8582 27.5099 35.0006 28.5581 35.69 29.2473L36.6062 30.1637C37.4959 31.0532 37.4959 32.4955 36.6062 33.3849L33.3849 36.6062C32.4955 37.4959 31.0532 37.4959 30.1637 36.6062L29.2473 35.69C28.5581 35.0006 27.5099 34.8582 26.6095 35.232C25.7095 35.6058 25.0556 36.4522 25.0556 37.4266V38.7222C25.0556 39.9802 24.0358 41 22.7778 41H18.2222C16.9642 41 15.9444 39.9802 15.9444 38.7222V37.4268C15.9444 36.4522 15.2904 35.6055 14.3904 35.232C13.4901 34.8582 12.4417 35.0006 11.7524 35.69L10.8361 36.6062C9.94658 37.4959 8.50438 37.4959 7.61486 36.6062L4.39358 33.3849C3.50407 32.4955 3.50407 31.0532 4.39358 30.1637L5.31002 29.2473C5.9993 28.5581 6.14175 27.5099 5.76797 26.6095C5.39435 25.7095 4.54779 25.0556 3.57335 25.0556H2.27778C1.01981 25.0556 0 24.0358 0 22.7778V18.2222C0 16.9642 1.01981 15.9444 2.27778 15.9444H3.57331C4.54777 15.9444 5.39435 15.2904 5.76799 14.3905C6.1418 13.4901 5.99935 12.4419 5.31002 11.7526L4.39363 10.8362C3.50409 9.94662 3.50409 8.50443 4.39363 7.61491L7.61488 4.39363C8.50443 3.50411 9.94662 3.50411 10.8362 4.39363L11.7526 5.31002C12.4419 5.99935 13.4901 6.1418 14.3905 5.76799C15.2904 5.39435 15.9444 4.54777 15.9444 3.57329V2.27778C15.9444 1.01981 16.9642 0 18.2222 0Z" fill="#C1C1C1"/>
<path d="M25.0556 20.5C25.0556 23.016 23.016 25.0556 20.5 25.0556C17.984 25.0556 15.9445 23.016 15.9445 20.5C15.9445 17.984 17.984 15.9444 20.5 15.9444C23.016 15.9444 25.0556 17.984 25.0556 20.5Z" fill="#D9D9D9"/>
</svg>
